<svg xmlns="http://www.w3.org/2000/svg" width="56.092" height="20" viewBox="0 0 56.092 20"><g transform="translate(-0.08 -0.002)"><path d="M431.058,335.8a.558.558,0,0,0-.036.13,3.528,3.528,0,0,1-.768,1.989,3.722,3.722,0,0,1-2.337,1.42,3.561,3.561,0,0,1-.651.059c-2.029,0-4.057.022-6.087,0a3.677,3.677,0,0,1-3.264-1.9,3.488,3.488,0,0,1-.5-1.805c0-.184,0-.367,0-.552v-6.328a.783.783,0,0,1,.081-.348q1.485-3.1,2.965-6.205l1.226-2.576c.026-.052.055-.1.085-.162.049,0,.1-.008.147-.008H427.3a3.789,3.789,0,0,1,3.665,2.975c.034.152.04.31.064.465a1.1,1.1,0,0,0,.036.139Zm-4.462-6.342V324.6a1.393,1.393,0,0,0,0-.147.236.236,0,0,0-.2-.224.73.73,0,0,0-.16-.012h-4.025a1,1,0,0,0-.108,0,.26.26,0,0,0-.253.249.968.968,0,0,0,0,.108v9.745a.729.729,0,0,0,.013.16.236.236,0,0,0,.223.2h4.126c.317,0,.38-.064.38-.375Z" transform="translate(-374.893 -319.509)" fill="#5ea6ca"/><path d="M208.036,319.478h4.429a.908.908,0,0,1,.02.1v15.969a3.788,3.788,0,0,1-3.212,3.76,4.593,4.593,0,0,1-.668.051c-1.993,0-3.986.009-5.979,0a3.79,3.79,0,0,1-3.7-3,3.544,3.544,0,0,1-.082-.759V323.891a.6.6,0,0,1,.059-.285q.986-2,1.968-4c.022-.044.047-.086.077-.139h2.329c.008.049.016.079.017.109s0,.09,0,.13V334.4a.238.238,0,0,0,.229.236H207.7a1.03,1.03,0,0,0,.108,0,.238.238,0,0,0,.223-.228V319.478Z" transform="translate(-184.797 -319.465)" fill="#5ea6ca"/><path d="M101.269,339.452H96.905c0-.081-.013-.142-.013-.2v-9.572a.881.881,0,0,0-.107-.436q-1.373-2.57-2.735-5.141-.934-1.752-1.865-3.505c-.175-.328-.352-.651-.521-.985-.023-.042-.043-.086-.064-.13.107-.034,4.232-.039,4.387-.007.076.142.158.29.237.441l3.474,6.519c.513.963,1.024,1.925,1.54,2.886a.521.521,0,0,1,.052.261v9.671A1.235,1.235,0,0,0,101.269,339.452Z" transform="translate(-91.52 -319.45)" fill="#5ea6ca"/><path d="M330.775,339.451q-3.077-10-6.135-19.929c.119-.031,4.225-.036,4.387-.008.016.042.039.089.055.139l1.215,3.908q.955,3.075,1.913,6.15.672,2.157,1.345,4.314a.349.349,0,0,1-.027.294q-.887,1.646-1.768,3.3l-.912,1.693C330.834,339.345,330.809,339.384,330.775,339.451Z" transform="translate(-294.206 -319.488)" fill="#5ea6ca"/></g></svg>